<svg width="118" height="22" viewBox="0 0 118 22" fill="none" xmlns="http://www.w3.org/2000/svg">
<path d="M11.3946 12.928L9.53227 11.0656L11.3946 9.20314V5.47825L5.80762 11.0656L11.3946 16.6529V12.928Z" fill="white"/>
<path d="M0.205322 1.74315V20.388H18.8542V1.74315H0.205322ZM16.1886 17.7223H2.8709V4.40378H16.1886V17.7223Z" fill="white"/>
<path d="M24.4825 1.37609L26.0815 4.75944L27.4488 1.37609H29.882L26.9737 7.54606C26.6493 8.2181 26.2322 8.76268 25.7223 9.1798C25.2125 9.59306 24.6216 9.79969 23.9496 9.79969C23.7603 9.79969 23.5749 9.78425 23.3934 9.75335C23.2157 9.72245 23.0844 9.69155 22.9994 9.66065L22.8778 9.62589V7.66772C23.0747 7.74497 23.3123 7.78359 23.5904 7.78359C23.9071 7.78359 24.1716 7.70828 24.3841 7.55765C24.6003 7.40702 24.751 7.24481 24.8359 7.071L24.9576 6.83347L22.0493 1.37609H24.4825ZM37.8917 1.37609V9.68383H35.6381V6.48008H32.6139V9.68383H30.3603V1.37609H32.6139V4.46397H35.6381V1.37609H37.8917ZM39.436 1.37609H41.6896V6.00502L45.2468 1.37609H47.205V9.68383H44.9513V5.0549L41.3826 9.68383H39.436V1.37609ZM52.7293 9.68383H48.755V1.37609H52.4918C53.3453 1.37609 54.0328 1.59431 54.5542 2.03075C55.0756 2.46718 55.3363 2.98086 55.3363 3.57179C55.3363 3.79966 55.2996 4.01788 55.2263 4.22644C55.1529 4.43114 55.064 4.59529 54.9598 4.71888C54.8555 4.84248 54.7512 4.95062 54.6469 5.04331C54.5465 5.13215 54.4577 5.19587 54.3804 5.2345L54.2703 5.29243C54.309 5.30788 54.3611 5.33105 54.4268 5.36195C54.4963 5.38899 54.616 5.45658 54.786 5.56472C54.9559 5.669 55.1065 5.78873 55.2378 5.92391C55.3692 6.05909 55.487 6.24448 55.5912 6.48008C55.6994 6.71567 55.7535 6.97252 55.7535 7.2506C55.7535 7.89946 55.4696 8.46721 54.9018 8.95386C54.3379 9.4405 53.6138 9.68383 52.7293 9.68383ZM51.0087 7.90525H52.5497C52.8123 7.90525 53.0267 7.82608 53.1928 7.66772C53.3589 7.50937 53.4419 7.3124 53.4419 7.0768C53.4419 6.83734 53.3589 6.63843 53.1928 6.48008C53.0267 6.32172 52.8123 6.24255 52.5497 6.24255H51.0087V7.90525ZM52.2542 3.16046H51.0087V4.57984H52.2542C52.4898 4.57984 52.6772 4.51611 52.8162 4.38866C52.9552 4.25734 53.0248 4.08547 53.0248 3.87305C53.0248 3.65676 52.9552 3.48489 52.8162 3.35743C52.6772 3.22612 52.4898 3.16046 52.2542 3.16046ZM59.0763 7.78359H63.3461V9.68383H56.8227V1.37609H63.2302V3.27633H59.0763V4.57984H62.2801V6.36421H59.0763V7.78359ZM64.4153 1.37609H68.152C69.0635 1.37609 69.8051 1.65224 70.3767 2.20455C70.9483 2.75299 71.2341 3.44627 71.2341 4.28438C71.2341 5.12249 70.9464 5.8177 70.3709 6.37C69.7993 6.91844 69.0597 7.19266 68.152 7.19266H66.6689V9.68383H64.4153V1.37609ZM68.0304 3.39799H66.6689V5.17656H68.0304C68.293 5.17656 68.517 5.08773 68.7024 4.91007C68.8878 4.7324 68.9805 4.52577 68.9805 4.29017C68.9805 4.05071 68.8878 3.84215 68.7024 3.66448C68.517 3.48682 68.293 3.39799 68.0304 3.39799ZM74.7655 3.83829C74.3137 4.28631 74.0877 4.8502 74.0877 5.52996C74.0877 6.20972 74.3137 6.77554 74.7655 7.22743C75.2174 7.67931 75.7832 7.90525 76.463 7.90525C76.884 7.90525 77.2818 7.81642 77.6564 7.63876C78.0311 7.46109 78.3014 7.2815 78.4675 7.09997L78.7166 6.83347L80.0202 8.25865C79.9893 8.305 79.9429 8.36679 79.8811 8.44404C79.8232 8.51742 79.6841 8.65067 79.464 8.84378C79.2477 9.03303 79.0121 9.20104 78.7572 9.34781C78.5061 9.49458 78.1721 9.62589 77.7549 9.74176C77.3417 9.86149 76.911 9.92136 76.463 9.92136C75.173 9.92136 74.0781 9.49071 73.1782 8.62943C72.2821 7.76428 71.8341 6.73112 71.8341 5.52996C71.8341 4.32879 72.2821 3.29757 73.1782 2.43628C74.0781 1.57114 75.173 1.13856 76.463 1.13856C76.9072 1.13856 77.3301 1.1965 77.7318 1.31236C78.1334 1.42823 78.4637 1.56727 78.7224 1.72949C78.9851 1.8917 79.2129 2.05392 79.4061 2.21613C79.603 2.37835 79.744 2.51739 79.829 2.63326L79.9622 2.80127L78.595 4.22644C78.5718 4.19555 78.5409 4.15692 78.5023 4.11058C78.4637 4.06037 78.3748 3.9754 78.2358 3.85567C78.0967 3.73207 77.9519 3.62393 77.8013 3.53124C77.6507 3.43468 77.4517 3.34971 77.2046 3.27633C76.9612 3.19908 76.7141 3.16046 76.463 3.16046C75.7832 3.16046 75.2174 3.3864 74.7655 3.83829ZM80.8519 1.37609H83.1055V6.00502L86.6626 1.37609H88.6208V9.68383H86.3672V5.0549L82.7984 9.68383H80.8519V1.37609ZM89.4583 1.37609H96.3409V3.39799H94.0235V9.68383H91.7699V3.39799H89.4583V1.37609ZM99.4262 7.78359H103.696V9.68383H97.1726V1.37609H103.58V3.27633H99.4262V4.57984H102.63V6.36421H99.4262V7.78359ZM104.053 1.37609H110.935V3.39799H108.618V9.68383H106.364V3.39799H104.053V1.37609ZM25.4558 13.8383C25.0039 14.2863 24.778 14.8502 24.778 15.53C24.778 16.2097 25.0039 16.7755 25.4558 17.2274C25.9077 17.6793 26.4735 17.9053 27.1533 17.9053C27.5743 17.9053 27.9721 17.8164 28.3467 17.6388C28.7214 17.4611 28.9917 17.2815 29.1578 17.1L29.4069 16.8335L30.7104 18.2587C30.6796 18.305 30.6332 18.3668 30.5714 18.444C30.5135 18.5174 30.3744 18.6507 30.1543 18.8438C29.938 19.033 29.7024 19.201 29.4475 19.3478C29.1964 19.4946 28.8624 19.6259 28.4452 19.7418C28.032 19.8615 27.6013 19.9214 27.1533 19.9214C25.8633 19.9214 24.7684 19.4907 23.8684 18.6294C22.9724 17.7643 22.5244 16.7311 22.5244 15.53C22.5244 14.3288 22.9724 13.2976 23.8684 12.4363C24.7684 11.5711 25.8633 11.1386 27.1533 11.1386C27.5975 11.1386 28.0204 11.1965 28.4221 11.3124C28.8237 11.4282 29.154 11.5673 29.4127 11.7295C29.6754 11.8917 29.9032 12.0539 30.0963 12.2161C30.2933 12.3784 30.4343 12.5174 30.5193 12.6333L30.6525 12.8013L29.2853 14.2264C29.2621 14.1955 29.2312 14.1569 29.1926 14.1106C29.154 14.0604 29.0651 13.9754 28.9261 13.8557C28.787 13.7321 28.6422 13.6239 28.4916 13.5312C28.3409 13.4347 28.142 13.3497 27.8949 13.2763C27.6515 13.1991 27.4043 13.1605 27.1533 13.1605C26.4735 13.1605 25.9077 13.3864 25.4558 13.8383ZM31.5421 11.3761H33.7958V16.005L37.3529 11.3761H39.3111V19.6838H37.0575V15.0549L33.4887 19.6838H31.5421V11.3761ZM48.3926 11.3761V19.6838H46.139V16.4801H43.1148V19.6838H40.8612V11.3761H43.1148V14.464H46.139V11.3761H48.3926ZM52.1905 17.7836H56.4603V19.6838H49.9369V11.3761H56.3444V13.2763H52.1905V14.5798H55.3943V16.3642H52.1905V17.7836ZM57.5295 11.3761H61.2662C62.1777 11.3761 62.9193 11.6522 63.4909 12.2045C64.0625 12.753 64.3483 13.4463 64.3483 14.2844C64.3483 15.1225 64.0606 15.8177 63.4851 16.37C62.9135 16.9184 62.1739 17.1927 61.2662 17.1927H59.7831V19.6838H57.5295V11.3761ZM61.1446 13.398H59.7831V15.1766H61.1446C61.4072 15.1766 61.6312 15.0877 61.8166 14.9101C62.002 14.7324 62.0947 14.5258 62.0947 14.2902C62.0947 14.0507 62.002 13.8421 61.8166 13.6645C61.6312 13.4868 61.4072 13.398 61.1446 13.398ZM65.4233 19.6838V11.3761H71.3558V13.398H67.677V19.6838H65.4233ZM72.0658 11.3761H74.3194V16.005L77.8766 11.3761H79.8348V19.6838H77.5811V15.0549L74.0124 19.6838H72.0658V11.3761ZM88.0299 11.3761V19.6838H85.7762V17.071H84.5886L83.1634 19.6838H80.7881L82.5088 16.6597C82.4701 16.6442 82.418 16.6191 82.3523 16.5844C82.2905 16.5457 82.1785 16.4569 82.0163 16.3179C81.8541 16.175 81.7093 16.0205 81.5818 15.8544C81.4582 15.6844 81.3443 15.4546 81.24 15.165C81.1396 14.8714 81.0894 14.5586 81.0894 14.2264C81.0894 13.4192 81.3733 12.7433 81.941 12.1988C82.5126 11.6503 83.2368 11.3761 84.1135 11.3761H88.0299ZM83.5863 13.6355C83.4241 13.79 83.343 13.987 83.343 14.2264C83.343 14.462 83.4261 14.659 83.5921 14.8174C83.7582 14.9757 83.9706 15.0549 84.2294 15.0549H85.7762V13.398H84.2294C83.9668 13.398 83.7524 13.4772 83.5863 13.6355Z" fill="white"/>
</svg>
